name D:\school\WTK\thesis\model\3dpredictsim\Results\MidTarsalJoint\Fal_s1_bCst_PF_Natali2010_ls150_MT_k50_MTP_T5_ig24_PFx2.mot
datacolumns 128
datarows 4
range 0.59239237 0.62793591
endheader
time	pelvis_tilt	pelvis_list	pelvis_rotation	pelvis_tx	pelvis_ty	pelvis_tz	hip_flexion_l	hip_adduction_l	hip_rotation_l	hip_flexion_r	hip_adduction_r	hip_rotation_r	knee_angle_l	knee_angle_r	ankle_angle_l	ankle_angle_r	subtalar_angle_l	subtalar_angle_r	mtj_angle_l	mtj_angle_r	mtp_angle_l	mtp_angle_r	lumbar_extension	lumbar_bending	lumbar_rotation	arm_flex_l	arm_add_l	arm_rot_l	arm_flex_r	arm_add_r	arm_rot_r	elbow_flex_l	elbow_flex_r	pro_sup_l	pro_sup_r	glut_med1_l/activation	glut_med2_l/activation	glut_med3_l/activation	glut_min1_l/activation	glut_min2_l/activation	glut_min3_l/activation	semimem_l/activation	semiten_l/activation	bifemlh_l/activation	bifemsh_l/activation	sar_l/activation	add_long_l/activation	add_brev_l/activation	add_mag1_l/activation	add_mag2_l/activation	add_mag3_l/activation	tfl_l/activation	pect_l/activation	grac_l/activation	glut_max1_l/activation	glut_max2_l/activation	glut_max3_l/activation	iliacus_l/activation	psoas_l/activation	quad_fem_l/activation	gem_l/activation	peri_l/activation	rect_fem_l/activation	vas_med_l/activation	vas_int_l/activation	vas_lat_l/activation	med_gas_l/activation	lat_gas_l/activation	soleus_l/activation	tib_post_l/activation	flex_dig_l/activation	flex_hal_l/activation	tib_ant_l/activation	per_brev_l/activation	per_long_l/activation	per_tert_l/activation	ext_dig_l/activation	ext_hal_l/activation	ercspn_l/activation	intobl_l/activation	extobl_l/activation	glut_med1_r/activation	glut_med2_r/activation	glut_med3_r/activation	glut_min1_r/activation	glut_min2_r/activation	glut_min3_r/activation	semimem_r/activation	semiten_r/activation	bifemlh_r/activation	bifemsh_r/activation	sar_r/activation	add_long_r/activation	add_brev_r/activation	add_mag1_r/activation	add_mag2_r/activation	add_mag3_r/activation	tfl_r/activation	pect_r/activation	grac_r/activation	glut_max1_r/activation	glut_max2_r/activation	glut_max3_r/activation	iliacus_r/activation	psoas_r/activation	quad_fem_r/activation	gem_r/activation	peri_r/activation	rect_fem_r/activation	vas_med_r/activation	vas_int_r/activation	vas_lat_r/activation	med_gas_r/activation	lat_gas_r/activation	soleus_r/activation	tib_post_r/activation	flex_dig_r/activation	flex_hal_r/activation	tib_ant_r/activation	per_brev_r/activation	per_long_r/activation	per_tert_r/activation	ext_dig_r/activation	ext_hal_r/activation	ercspn_r/activation	intobl_r/activation	extobl_r/activation	
          0.59239237	         -2.93013735	          2.41099879	         -6.73451887	          0.74049046	          0.91638686	          0.00233056	         28.70725528	          3.53365037	         -1.98323318	        -15.93335776	         -2.01631811	          6.28573933	         -8.84457987	        -11.50002444	          5.22324899	         -5.93263575	         -8.06976797	         12.34564717	         -0.75669661	         11.86677597	          1.73968849	          0.20953658	         -1.52755666	         -0.42053144	          2.71444248	         -7.95964622	        -13.51009809	          5.28767719	          4.44145536	        -13.45433182	         15.01492274	         17.56517186	         40.34371914	         86.51662706	         86.51662706	          0.05000001	          0.05000003	          0.06899978	          0.05000004	          0.05000005	          0.05000005	          0.19218133	          0.09271839	          0.12063780	          0.07463499	          0.05988375	          0.12311469	          0.27341118	          0.27758366	          0.17517685	          0.09634684	          0.05000017	          0.07172201	          0.13398570	          0.05000051	          0.10116846	          0.13579955	          0.05000077	          0.07169598	          0.52796307	          0.19665711	          0.08270383	          0.05987352	          0.05987348	          0.05987349	          0.05987341	          0.06975420	          0.07169597	          0.06316507	          0.05987303	          0.05000581	          0.05987256	          0.42245362	          0.19071077	          0.23091954	          0.16331219	          0.39522408	          0.19147189	          0.05000000	          0.11073624	          0.09371507	          0.18199332	          0.09095252	          0.05811701	          0.19337160	          0.15413810	          0.10280584	          0.05000509	          0.05000070	          0.05000064	          0.05000023	          0.09691248	          0.05987405	          0.05000220	          0.05987325	          0.05031587	          0.05987329	          0.26246214	          0.05000378	          0.05000970	          0.05001482	          0.05001234	          0.05003452	          0.37822244	          0.62683946	          0.05001384	          0.05803337	          0.05807918	          0.29620951	          0.08733569	          0.12035555	          0.13097395	          0.24355551	          0.32953591	          0.35339711	          0.22342794	          0.15728153	          0.22224890	          0.05000008	          0.05002924	          0.18045348	          0.05000023	          0.05000008	          0.05000035	          0.05000006	          0.07169600	          0.07169603	
          0.60424022	         -2.92909384	          2.49576498	         -7.03000404	          0.75874319	          0.91525582	          0.00216594	         27.98483719	          3.81125224	         -1.69001051	        -16.03107027	         -2.36147513	          6.10286405	         -9.54172953	        -13.04868691	          4.58782211	         -6.29558995	         -8.34920338	         13.12791477	         -0.97150394	         10.24211687	          1.80242967	          1.80537803	         -1.28736820	         -0.60420975	          2.78237475	         -8.93358628	        -13.50428482	          5.37061301	          4.11256785	        -13.45504545	         15.36659362	         17.09645125	         41.52515131	         86.51662706	         86.51662706	          0.22463209	          0.20748089	          0.21649400	          0.26499509	          0.19100251	          0.17950863	          0.16049028	          0.07756359	          0.10074444	          0.08584629	          0.05000903	          0.10281287	          0.22832518	          0.23180964	          0.14628997	          0.11489949	          0.05000021	          0.05989521	          0.11189165	          0.05000041	          0.11851106	          0.11340620	          0.05164211	          0.05987321	          0.44090097	          0.16422804	          0.17469385	          0.05000027	          0.05000027	          0.05000028	          0.05000020	          0.05825161	          0.05987319	          0.05274904	          0.05000003	          0.05000017	          0.05000017	          0.49816670	          0.33272565	          0.19284052	          0.34037189	          0.49885672	          0.17546957	          0.05000006	          0.14533429	          0.07826128	          0.26867868	          0.07596749	          0.06291267	          0.28195909	          0.12872076	          0.08585326	          0.05000064	          0.05000010	          0.05000009	          0.05000014	          0.08585382	          0.05000079	          0.05000037	          0.05000038	          0.05000058	          0.05000044	          0.28290439	          0.05000720	          0.05000055	          0.05000249	          0.05000119	          0.05000062	          0.33301344	          0.61458507	          0.05000039	          0.05000109	          0.05000273	          0.25312574	          0.12534164	          0.10052002	          0.10938129	          0.20339275	          0.27519484	          0.30472612	          0.19069367	          0.13134568	          0.18559982	          0.05000000	          0.09859756	          0.18832382	          0.05000009	          0.05000002	          0.05000009	          0.05000002	          0.05987320	          0.05987323	
          0.61608806	         -2.92647210	          2.57950708	         -7.27868567	          0.77711921	          0.91424599	          0.00197682	         27.25681698	          4.05860059	         -1.40260919	        -16.06840524	         -2.70016968	          5.93906292	        -10.20311273	        -14.65401001	          3.85149027	         -6.71846528	         -8.62055565	         13.84056369	         -0.89349873	          8.22509588	          1.86338520	          3.94342447	         -1.05065608	         -0.79930024	          2.84018448	         -9.88014127	        -13.49940360	          5.50822162	          3.73738155	        -13.45784922	         15.67100101	         16.65372707	         42.63127137	         86.51662706	         86.51662706	          0.31248337	          0.31668812	          0.33884867	          0.22129711	          0.20476798	          0.22833260	          0.13402514	          0.06477336	          0.08413152	          0.07169012	          0.05000028	          0.08585885	          0.19067395	          0.19358387	          0.12216669	          0.13825519	          0.05000039	          0.05001857	          0.09344064	          0.19745077	          0.17483176	          0.13537208	          0.05000003	          0.05000006	          0.36819559	          0.13714657	          0.14588680	          0.05000006	          0.07592851	          0.08431423	          0.07081391	          0.05000001	          0.05000005	          0.05000000	          0.05000010	          0.05000018	          0.05000018	          0.57414911	          0.32582269	          0.20812306	          0.43278510	          0.51894905	          0.29508904	          0.07003681	          0.12136839	          0.06535585	          0.24538102	          0.06344046	          0.05932137	          0.24323991	          0.10749457	          0.07169600	          0.05000083	          0.05000009	          0.05000007	          0.05000017	          0.07169723	          0.05000012	          0.05000009	          0.05000012	          0.05000030	          0.05000015	          0.23625310	          0.05000063	          0.05000045	          0.05000333	          0.05000120	          0.05000039	          0.27809898	          0.59519744	          0.05000023	          0.05000146	          0.05000058	          0.21138484	          0.10467366	          0.14457185	          0.13859920	          0.16985290	          0.22981470	          0.25447621	          0.15924796	          0.10968660	          0.15499412	          0.05000023	          0.08233877	          0.19474289	          0.05000036	          0.07534122	          0.05000035	          0.06009140	          0.05000000	          0.05000003	
          0.62793591	         -2.92272844	          2.65835107	         -7.48100722	          0.79545394	          0.91349097	          0.00175693	         26.59424966	          4.31897065	         -1.12742315	        -16.01179788	         -3.02193339	          5.79405956	        -10.96499216	        -16.33392469	          3.12603457	         -7.25474324	         -8.89050065	         14.47439161	         -0.93359751	          5.84028684	          1.89522334	          6.54034139	         -0.82872360	         -1.00438435	          2.88911234	        -10.76820165	        -13.49114280	          5.67091691	          3.35516334	        -13.46072588	         15.96735336	         16.22882530	         43.61002897	         86.51662706	         86.51662706	          0.38190077	          0.36845774	          0.38449333	          0.20986622	          0.17101407	          0.19113234	          0.11192416	          0.07079666	          0.07467669	          0.05986836	          0.05000026	          0.07170060	          0.15923154	          0.16166239	          0.17426482	          0.17009158	          0.05000015	          0.05000320	          0.08015141	          0.24042958	          0.20978042	          0.17785437	          0.05000007	          0.05000006	          0.30747946	          0.11453089	          0.13531372	          0.05000004	          0.13184979	          0.13952879	          0.11286927	          0.05000001	          0.05000004	          0.05000000	          0.05000001	          0.05000009	          0.05000008	          0.60950223	          0.27209404	          0.17380323	          0.47379621	          0.55271137	          0.29952659	          0.07962160	          0.10135452	          0.05457856	          0.24664327	          0.05297907	          0.05000009	          0.20312940	          0.08976856	          0.05987326	          0.05000089	          0.05000011	          0.05000012	          0.05000007	          0.05987434	          0.05793606	          0.05227492	          0.05000409	          0.05000349	          0.05001535	          0.19729460	          0.05921595	          0.05000047	          0.05000160	          0.05000104	          0.05000084	          0.23223995	          0.55104065	          0.05000018	          0.05000060	          0.05000014	          0.17652709	          0.12310678	          0.12310669	          0.11574453	          0.14184384	          0.19191783	          0.21251260	          0.13298769	          0.09159912	          0.12943534	          0.08314406	          0.12948853	          0.17128065	          0.05000075	          0.13259383	          0.05000124	          0.08028744	          0.05000001	          0.05000001	
